<svg width="48" height="32" viewBox="0 0 48 32" fill="none" xmlns="http://www.w3.org/2000/svg">
<g clip-path="url(#clip0_229_127)">
<path d="M48 28.9074C48 30.3823 46.7297 31.578 45.1627 31.578H2.83734C1.27031 31.5781 0 30.3823 0 28.9074V3.09289C0 1.61804 1.27031 0.422363 2.83734 0.422363H45.1627C46.7298 0.422363 48 1.61804 48 3.09289V28.9074Z" fill="#306FC5"/>
<path opacity="0.15" d="M2.01722 28.9074V3.09289C2.01722 1.61804 3.28772 0.422363 4.85475 0.422363H2.83725C1.27031 0.422363 0 1.61795 0 3.09289V28.9075C0 30.3824 1.27031 31.5781 2.83734 31.5781H4.85484C3.28781 31.5781 2.01722 30.3823 2.01722 28.9074Z" fill="#202121"/>
<path d="M6.9928 12.8894H8.42699L7.71008 11.1715L6.9928 12.8894Z" fill="white"/>
<path d="M14.6199 18.6564V19.4541H17.032V20.3133H14.6199V21.2338H17.2927L18.5312 19.945L17.3579 18.6564H14.6199Z" fill="white"/>
<path d="M33.4592 11.1715L32.6768 12.8894H34.1764L33.4592 11.1715Z" fill="white"/>
<path d="M21.5951 21.7241V18.227L19.9001 19.9451L21.5951 21.7241Z" fill="white"/>
<path d="M24.7894 19.2088C24.7242 18.8407 24.4632 18.6564 24.0718 18.6564H22.7032V19.7607H24.1375C24.5285 19.7608 24.7894 19.5768 24.7894 19.2088Z" fill="white"/>
<path d="M29.3522 19.6383C29.4826 19.5768 29.548 19.3926 29.548 19.2089C29.6133 18.9637 29.4826 18.8408 29.3522 18.7794C29.2222 18.718 29.0263 18.718 28.831 18.718H27.527V19.6998H28.8309C29.0262 19.6998 29.2221 19.6998 29.3522 19.6383Z" fill="white"/>
<path d="M38.7391 9.57617V10.3124L38.3483 9.57617H35.2847V10.3124L34.8934 9.57617H30.7213C30.0043 9.57617 29.4173 9.699 28.8961 9.94438V9.57617H25.9628V9.63758V9.94438C25.6369 9.69908 25.2458 9.57617 24.7242 9.57617H14.2289L13.5115 11.1101L12.7946 9.57617H10.448H9.47007V10.3124L9.1441 9.57617H9.07885H6.27582L4.97185 12.4597L3.47269 15.5887L3.44513 15.6502H3.47269H6.79735H6.83897L6.8626 15.5887L7.25391 14.6686H8.10132L8.49244 15.6502H12.273V15.5887V14.914L12.5992 15.6501H14.4894L14.8152 14.914V15.5887V15.6502H16.3146H23.8113H23.8765V14.0549H24.0072C24.1374 14.0549 24.1374 14.0549 24.1374 14.2391V15.5888H28.831V15.2207C29.2222 15.405 29.8085 15.5888 30.5908 15.5888H32.5467L32.9378 14.6073H33.8502L34.2413 15.5888H38.0221V14.9754V14.6687L38.6091 15.5888H38.7391H38.8045H41.6728V9.57617H38.7393H38.7391ZM16.6407 14.7301H15.9887H15.5977V14.3622V11.3555L15.5324 11.4963V11.4946L14.0159 14.7301H13.9679H13.6193H13.0552L11.4908 11.3555V14.7301H9.2745L8.81822 13.8098H6.6016L6.14522 14.7301H4.99932L6.92775 10.4352H8.55732L10.3825 14.5458V10.4352H10.7736H12.1096L12.1403 10.4967H12.1426L12.9651 12.1815L13.5557 13.4438L13.5766 13.3802L14.8803 10.4353H16.6406V14.7301H16.6407ZM21.1388 11.3555H18.5964V12.1531H21.0736V13.012H18.5964V13.8712H21.1388V14.7912H17.4883V10.4353H21.1388V11.3555ZM25.7884 12.9376C25.7901 12.939 25.7922 12.94 25.7943 12.9413C25.8189 12.9658 25.84 12.9904 25.858 13.014C25.9829 13.1681 26.0839 13.3972 26.0889 13.7332C26.0893 13.739 26.0896 13.7448 26.09 13.7506C26.09 13.7539 26.0906 13.7568 26.0906 13.7603C26.0906 13.7622 26.0904 13.7637 26.0904 13.7656C26.0919 13.7994 26.0929 13.8339 26.0929 13.8712V14.7302H25.1153V14.2391C25.1153 13.9938 25.1153 13.6256 24.9194 13.3802C24.8578 13.3222 24.7955 13.284 24.7276 13.2568C24.6299 13.1973 24.4448 13.1963 24.1374 13.1963H22.9637V14.7302H21.8558V10.4353H24.3331C24.9194 10.4353 25.3107 10.4353 25.6368 10.6194C25.9562 10.7999 26.1491 11.0993 26.1564 11.5734C26.1414 12.2263 25.696 12.5846 25.3759 12.7053C25.3759 12.7053 25.5934 12.7466 25.7884 12.9376ZM27.9835 14.7301H26.8752V10.4352H27.9835V14.7301ZM40.6953 14.7301H39.2609L37.175 11.4782V14.1777L37.1681 14.1714V14.7327H36.0669V14.7302H34.9585L34.5674 13.8099H32.2856L31.8945 14.7913H30.656C30.1348 14.7913 29.4825 14.6688 29.0916 14.3006C28.7004 13.9325 28.5051 13.4417 28.5051 12.6442C28.5051 12.0307 28.6353 11.4168 29.0916 10.9261C29.4173 10.5577 30.0042 10.4353 30.7211 10.4353H31.7644V11.3555H30.7211C30.33 11.3555 30.1348 11.4167 29.8735 11.6011C29.6784 11.7851 29.5479 12.1531 29.5479 12.5825C29.5479 13.0735 29.6131 13.3802 29.8735 13.6256C30.0696 13.8099 30.3301 13.8713 30.656 13.8713H31.1123L32.6114 10.4969H33.2636H34.2413L36.0668 14.6075V14.3979V13.0121V12.8896V10.497H37.6963L39.5864 13.5032V10.497H40.6951V14.7303H40.6953V14.7301Z" fill="white"/>
<path d="M24.8589 12.224C24.8779 12.2049 24.8952 12.1832 24.9098 12.1583C24.9688 12.0703 25.0365 11.9119 25.0001 11.6956C24.9986 11.6757 24.9947 11.6574 24.9902 11.6396C24.989 11.6347 24.9892 11.6304 24.9878 11.6254L24.9871 11.6255C24.9547 11.5204 24.8719 11.4559 24.7893 11.4167C24.6586 11.3555 24.4631 11.3555 24.2676 11.3555H22.9636V12.3373H24.2676C24.4631 12.3373 24.6587 12.3373 24.7893 12.2758C24.8089 12.2665 24.8263 12.2538 24.8431 12.2394L24.8433 12.2402C24.8433 12.2402 24.8501 12.2336 24.8589 12.224Z" fill="white"/>
<path d="M44.5411 20.8655C44.5411 20.4361 44.4109 20.0065 44.2154 19.6997V16.939H44.2124V16.7546C44.2124 16.7546 41.4801 16.7546 41.0734 16.7546C40.6669 16.7546 40.1736 17.1227 40.1736 17.1227V16.7546H37.1751C36.7185 16.7546 36.1322 16.8775 35.8711 17.1227V16.7546H30.5259V16.939V17.1226C30.135 16.816 29.4174 16.7545 29.0917 16.7545H25.5715V16.9389V17.1225C25.2456 16.816 24.463 16.7545 24.0717 16.7545H20.161L19.2481 17.6748L18.4006 16.7545H18.1277H17.6836H12.5339V16.9388V17.4235V22.9515H18.2705L19.2131 22.0641L20.0301 22.9515H20.0955H23.401H23.5508H23.616H23.6809V22.338V21.5404H24.0071C24.463 21.5404 25.0499 21.5404 25.5062 21.3561V22.8898V23.0128H28.4397V22.8898V21.4175H28.5698C28.7656 21.4175 28.7656 21.4175 28.7656 21.6016V22.8898V23.0128H37.6309C38.2181 23.0128 38.8044 22.8898 39.1302 22.6444V22.8898V23.0128H41.9336C42.5199 23.0128 43.107 22.9515 43.4982 22.7059C44.0983 22.367 44.4766 21.7671 44.5329 21.0516C44.5355 21.0304 44.5388 21.0093 44.5408 20.988L44.537 20.9845C44.5394 20.9448 44.5411 20.9056 44.5411 20.8655ZM24.0072 20.4975H22.7031V20.6811V21.0494V21.4176V22.0925H20.5604L19.3134 20.7426L19.3091 20.7471L19.2481 20.6811L17.814 22.0925H13.6421V17.7978H17.8793L19.0369 18.9912L19.2803 19.2411L19.3133 19.2089L20.6824 17.7979H24.1373C24.8078 17.7979 25.5586 17.9537 25.8432 18.5958C25.8774 18.7229 25.8972 18.8642 25.8972 19.0248C25.8972 20.2518 24.9846 20.4975 24.0072 20.4975ZM30.5259 20.436C30.6561 20.6196 30.7213 20.8654 30.7213 21.2337V22.0924H29.6133V21.5404C29.6133 21.2946 29.6133 20.8654 29.4175 20.6811C29.2874 20.4975 29.0263 20.4975 28.6355 20.4975H27.4622V22.0925H26.3541V17.7364H28.8311C29.3522 17.7364 29.8085 17.7364 30.135 17.9203C30.4607 18.1045 30.7213 18.4113 30.7213 18.9022C30.7213 19.5769 30.2652 19.945 29.9392 20.068C30.2652 20.1902 30.4607 20.3132 30.5259 20.436ZM35.024 18.6564H32.4813V19.454H34.9586V20.3132H32.4813V21.1722H35.024V22.0924H31.3735V17.7363H35.024V18.6564ZM37.7617 22.0925H35.6756V21.1723H37.7617C37.9569 21.1723 38.0876 21.1723 38.2182 21.0495C38.2835 20.988 38.3483 20.8655 38.3483 20.7427C38.3483 20.6197 38.2835 20.4976 38.2182 20.4361C38.1528 20.3747 38.0222 20.3133 37.8267 20.3133C36.7837 20.2519 35.5452 20.3133 35.5452 18.9637C35.5452 18.3501 35.9363 17.6751 37.1097 17.6751H39.2608V18.718H37.2402C37.0447 18.718 36.9141 18.718 36.7836 18.7794C36.6536 18.8409 36.6536 18.9637 36.6536 19.0862C36.6536 19.2704 36.7836 19.3318 36.914 19.3927C37.0447 19.4542 37.1749 19.4542 37.3051 19.4542H37.8919C38.4787 19.4542 38.8697 19.5769 39.1304 19.8224C39.3261 20.0065 39.4565 20.3133 39.4565 20.7427C39.4565 21.6627 38.8698 22.0925 37.7617 22.0925ZM43.3678 21.6627C43.1074 21.9085 42.6508 22.0925 41.9987 22.0925H39.9132V21.1723H41.9986C42.1943 21.1723 42.325 21.1723 42.4552 21.0495C42.5202 20.988 42.5856 20.8655 42.5856 20.7427C42.5856 20.6197 42.5202 20.4976 42.4552 20.4361C42.3899 20.3747 42.2597 20.3133 42.0641 20.3133C41.0214 20.2519 39.7825 20.3133 39.7825 18.9638C39.7825 18.3806 40.1369 17.8539 41.0112 17.6974C41.1157 17.6838 41.2261 17.6751 41.3471 17.6751H43.4984V18.718H42.0641H41.5427H41.4775C41.2818 18.718 41.1516 18.718 41.0214 18.7794C40.9557 18.8409 40.8905 18.9637 40.8905 19.0862C40.8905 19.2704 40.9557 19.3318 41.1516 19.3927C41.2818 19.4542 41.4122 19.4542 41.5427 19.4542H41.6075H42.1292C42.4141 19.4542 42.6296 19.4873 42.8267 19.5525C43.0073 19.614 43.605 19.8656 43.7387 20.5225C43.7503 20.5914 43.7589 20.6632 43.7589 20.7427C43.7589 21.1109 43.6285 21.4176 43.3678 21.6627Z" fill="white"/>
</g>
<defs>
<clipPath id="clip0_229_127">
<rect width="48" height="32" fill="white"/>
</clipPath>
</defs>
</svg>
