<svg width="48" height="32" viewBox="0 0 48 32" fill="none" xmlns="http://www.w3.org/2000/svg">
<g id="diners-club-seeklogo.com 1">
<g id="Group">
<path id="Vector" d="M26.2507 17.813C30.6595 17.8333 34.6839 14.4134 34.6839 10.2528C34.6839 5.70337 30.6595 2.55875 26.2507 2.56006H22.4566C17.995 2.55875 14.3226 5.70411 14.3226 10.2528C14.3226 14.4143 17.995 17.8333 22.4566 17.813H26.2507Z" fill="#006095"/>
<path id="Vector_2" d="M24.1488 14.3041V6.04277C25.9049 6.67978 27.1516 8.28748 27.1545 10.1732C27.1516 12.0592 25.9049 13.666 24.1488 14.3041ZM17.7954 10.1732C17.7994 8.2886 19.044 6.68183 20.7992 6.04296V14.3024C19.044 13.6641 17.7994 12.0583 17.7954 10.1732ZM22.4743 3.19067C18.3975 3.19198 15.0939 6.31684 15.0929 10.1732C15.0939 14.0291 18.3975 17.1534 22.4743 17.1545C26.5525 17.1534 29.8567 14.0291 29.8573 10.1732C29.8567 6.31684 26.5525 3.19198 22.4743 3.19067Z" fill="white"/>
<path id="Vector_3" d="M5.09347 20.0122C5.09347 19.2908 4.69532 19.3382 4.31391 19.3305V19.122C4.64449 19.1373 4.98354 19.1373 5.3149 19.1373C5.67089 19.1373 6.15454 19.122 6.78259 19.122C8.979 19.122 10.1748 20.5093 10.1748 21.93C10.1748 22.7242 9.68329 24.7215 6.68034 24.7215C6.24811 24.7215 5.84878 24.7057 5.45044 24.7057C5.06904 24.7057 4.69532 24.7133 4.31391 24.7215V24.5129C4.82238 24.4646 5.06904 24.4486 5.09347 23.903V20.0122ZM5.92483 23.7749C5.92483 24.3925 6.39193 24.4646 6.80721 24.4646C8.63976 24.4646 9.24161 23.157 9.24161 21.9617C9.24161 20.462 8.22368 19.3792 6.58677 19.3792C6.23846 19.3792 6.07829 19.4026 5.92483 19.4112V23.7749ZM10.4723 24.513H10.6333C10.8704 24.513 11.0403 24.513 11.0403 24.2477V22.0742C11.0403 21.7215 10.9132 21.6725 10.599 21.513V21.3845C10.9977 21.2715 11.4731 21.1199 11.5066 21.0959C11.5663 21.0638 11.6169 21.0552 11.6595 21.0552C11.7014 21.0552 11.719 21.1035 11.719 21.1681V24.2477C11.719 24.513 11.9055 24.513 12.1433 24.513H12.2871V24.7217C11.9985 24.7217 11.7014 24.7057 11.3968 24.7057C11.0913 24.7057 10.7857 24.7135 10.4723 24.7217V24.513ZM11.3799 19.8202C11.1589 19.8202 10.9642 19.6277 10.9642 19.419C10.9642 19.2182 11.1681 19.0332 11.3799 19.0332C11.5998 19.0332 11.7954 19.2023 11.7954 19.419C11.7954 19.6359 11.6084 19.8202 11.3799 19.8202ZM13.0931 22.1221C13.0931 21.8255 12.9993 21.7455 12.6015 21.5931V21.4407C12.9658 21.3286 13.3133 21.2239 13.7209 21.0552C13.7461 21.0552 13.771 21.0716 13.771 21.1354V21.657C14.2552 21.3286 14.6711 21.0552 15.24 21.0552C15.9605 21.0552 16.2148 21.5527 16.2148 22.1785V24.2477C16.2148 24.513 16.4012 24.513 16.639 24.513H16.7916V24.7217C16.4942 24.7217 16.1973 24.7057 15.8927 24.7057C15.587 24.7057 15.2814 24.7135 14.9762 24.7217V24.513H15.1287C15.3667 24.513 15.5355 24.513 15.5355 24.2477V22.1707C15.5355 21.7129 15.24 21.4888 14.7558 21.4888C14.4845 21.4888 14.0519 21.6971 13.771 21.8737V24.2477C13.771 24.513 13.9587 24.513 14.1963 24.513H14.3488V24.7217C14.0519 24.7217 13.7546 24.7057 13.4493 24.7057C13.1443 24.7057 12.8383 24.7135 12.5334 24.7217V24.513H12.6864C12.9238 24.513 13.0931 24.513 13.0931 24.2477V22.1221ZM17.4366 22.5077C17.4191 22.58 17.4191 22.7 17.4366 22.973C17.4865 23.7348 18.0054 24.3603 18.6829 24.3603C19.1502 24.3603 19.5154 24.1195 19.8285 23.8231L19.9471 23.9355C19.5568 24.4249 19.0732 24.8419 18.3783 24.8419C17.029 24.8419 16.758 23.6062 16.758 23.0931C16.758 21.5206 17.8771 21.0552 18.4705 21.0552C19.1583 21.0552 19.8968 21.4642 19.9043 22.3145C19.9043 22.3633 19.9043 22.4109 19.8968 22.4595L19.8198 22.5077H17.4366ZM18.9382 22.2508C19.1502 22.2508 19.1748 22.1463 19.1748 22.0502C19.1748 21.6412 18.9122 21.3123 18.4368 21.3123C17.9197 21.3123 17.5635 21.6725 17.4619 22.2508H18.9382ZM20.1 24.513H20.3291C20.5657 24.513 20.7355 24.513 20.7355 24.2477V21.9941C20.7355 21.7455 20.4221 21.6971 20.2946 21.633V21.513C20.9138 21.2641 21.2532 21.0552 21.3306 21.0552C21.3805 21.0552 21.4057 21.0793 21.4057 21.1599V21.8817H21.4238C21.635 21.5689 21.992 21.0552 22.5091 21.0552C22.7213 21.0552 22.9924 21.1914 22.9924 21.4804C22.9924 21.6971 22.8316 21.8901 22.5942 21.8901C22.3303 21.8901 22.3303 21.6971 22.0338 21.6971C21.8894 21.6971 21.4146 21.8817 21.4146 22.3633V24.2477C21.4146 24.513 21.5838 24.513 21.8216 24.513H22.2964V24.7217C21.8297 24.7135 21.4747 24.7057 21.1094 24.7057C20.7617 24.7057 20.4053 24.7135 20.1 24.7217V24.513ZM23.3655 23.6062C23.476 24.1356 23.8151 24.5851 24.4347 24.5851C24.9343 24.5851 25.1208 24.2964 25.1208 24.0158C25.1208 23.0689 23.2723 23.3735 23.2723 22.0824C23.2723 21.6328 23.6545 21.0552 24.5871 21.0552C24.8582 21.0552 25.2229 21.1277 25.5535 21.2883L25.6133 22.1059H25.4181C25.3334 21.6009 25.0367 21.3122 24.4936 21.3122C24.1539 21.3122 23.832 21.4966 23.832 21.8415C23.832 22.7807 25.7999 22.4913 25.7999 23.7506C25.7999 24.28 25.3503 24.8421 24.3407 24.8421C24.0014 24.8421 23.6027 24.7295 23.3062 24.5693L23.2126 23.6467L23.3655 23.6062ZM33.4593 20.5738H33.2477C33.0862 19.6359 32.3821 19.2584 31.4325 19.2584C30.4565 19.2584 29.0397 19.8759 29.0397 21.8011C29.0397 23.4224 30.2621 24.5851 31.5678 24.5851C32.4073 24.5851 33.1035 24.0398 33.2733 23.1971L33.4679 23.2452L33.2733 24.4163C32.9169 24.6256 31.9583 24.8419 31.398 24.8419C29.4138 24.8419 28.1587 23.6305 28.1587 21.8255C28.1587 20.1809 29.7105 19.0013 31.373 19.0013C32.0598 19.0013 32.7217 19.2105 33.3746 19.4272L33.4593 20.5738ZM33.7652 24.513H33.9256C34.1638 24.513 34.3336 24.513 34.3336 24.2477V19.7803C34.3336 19.2584 34.2063 19.2424 33.884 19.1543V19.0259C34.2231 18.9218 34.5795 18.7774 34.7575 18.6807C34.8501 18.633 34.9185 18.5922 34.9435 18.5922C34.9951 18.5922 35.0123 18.6408 35.0123 18.7051V24.2477C35.0123 24.513 35.1986 24.513 35.4364 24.513H35.5796V24.7217C35.2922 24.7217 34.9951 24.7057 34.6898 24.7057C34.3846 24.7057 34.0793 24.7135 33.7652 24.7217V24.513ZM39.2114 24.28C39.2114 24.4249 39.3044 24.4326 39.4484 24.4326C39.5505 24.4326 39.6772 24.4249 39.7879 24.4249V24.5937C39.4226 24.6256 38.7274 24.794 38.5661 24.8421L38.5233 24.8179V24.1684C38.0152 24.5613 37.6244 24.8421 37.0215 24.8421C36.5639 24.8421 36.0889 24.5613 36.0889 23.8878V21.8337C36.0889 21.625 36.0552 21.4243 35.5806 21.3845V21.2319C35.8864 21.224 36.5639 21.176 36.6746 21.176C36.7686 21.176 36.7686 21.2319 36.7686 21.4085V23.4777C36.7686 23.7188 36.7686 24.4085 37.506 24.4085C37.7944 24.4085 38.176 24.2 38.5318 23.9198V21.761C38.5318 21.601 38.125 21.513 37.8202 21.4327V21.2883C38.5828 21.2399 39.0586 21.176 39.1429 21.176C39.2114 21.176 39.2114 21.2319 39.2114 21.3205V24.28ZM40.8992 21.633C41.238 21.3602 41.6963 21.0552 42.1632 21.0552C43.1472 21.0552 43.7402 21.8661 43.7402 22.7401C43.7402 23.7909 42.9264 24.8421 41.7126 24.8421C41.0856 24.8421 40.7548 24.6492 40.5339 24.5613L40.2798 24.7454L40.1023 24.6574C40.1774 24.1842 40.2207 23.7188 40.2207 23.2295V19.7803C40.2207 19.2584 40.0928 19.2424 39.7707 19.1543V19.0259C40.1108 18.9218 40.4662 18.7774 40.6447 18.6807C40.7378 18.633 40.8052 18.5922 40.8316 18.5922C40.8824 18.5922 40.8992 18.6408 40.8992 18.7051V21.633ZM40.8992 23.8147C40.8992 24.1195 41.2043 24.6336 41.7727 24.6336C42.6805 24.6336 43.0619 23.7909 43.0619 23.0766C43.0619 22.2104 42.3671 21.4888 41.7051 21.4888C41.3905 21.4888 41.1281 21.6814 40.8992 21.8661V23.8147ZM4.30426 29.3857H4.36927C4.53515 29.3857 4.71049 29.3645 4.71049 29.1372V26.8505C4.71049 26.6229 4.53515 26.6012 4.36927 26.6012H4.30426V26.4703C4.48432 26.4703 4.76131 26.4874 4.98807 26.4874C5.21856 26.4874 5.49516 26.4703 5.71206 26.4703V26.6012H5.64725C5.48176 26.6012 5.30603 26.6229 5.30603 26.8505V29.1372C5.30603 29.3645 5.48176 29.3857 5.64725 29.3857H5.71206V29.5173C5.49063 29.5173 5.21305 29.5001 4.98314 29.5001C4.75678 29.5001 4.48432 29.5173 4.30426 29.5173V29.3857ZM8.88306 28.6569L8.89232 28.6483V27.0117C8.89232 26.6536 8.62892 26.6012 8.49063 26.6012H8.38897V26.4703C8.60607 26.4703 8.81844 26.4876 9.03515 26.4876C9.22427 26.4876 9.41419 26.4703 9.60292 26.4703V26.6012H9.53416C9.33972 26.6012 9.12282 26.6363 9.12282 27.1555V29.142C9.12282 29.2946 9.12754 29.4472 9.1502 29.5825H8.97486L6.59819 27.0767V28.8754C6.59819 29.2551 6.67601 29.3857 7.0318 29.3857H7.11001V29.5173C6.91182 29.5173 6.71364 29.5001 6.51486 29.5001C6.30781 29.5001 6.09524 29.5173 5.8874 29.5173V29.3857H5.95201C6.27037 29.3857 6.3671 29.181 6.3671 28.8322V26.9936C6.3671 26.7496 6.15434 26.6012 5.94748 26.6012H5.8874V26.4703C6.06253 26.4703 6.2426 26.4876 6.41754 26.4876C6.55623 26.4876 6.69039 26.4703 6.82869 26.4703L8.88306 28.6569ZM10.2942 26.6884C9.94748 26.6884 9.93448 26.7671 9.86513 27.0853H9.72683C9.74476 26.9633 9.76821 26.8412 9.78219 26.7143C9.80091 26.5919 9.80977 26.4703 9.80977 26.3438H9.92049C9.95772 26.4749 10.073 26.4703 10.1983 26.4703H12.5791C12.704 26.4703 12.819 26.466 12.8287 26.3348L12.9388 26.3523C12.9209 26.4703 12.9022 26.5878 12.8882 26.706C12.8797 26.8239 12.8797 26.9418 12.8797 27.0594L12.741 27.1078C12.7316 26.9465 12.7083 26.6884 12.3994 26.6884H11.6425V29.0107C11.6425 29.3473 11.8043 29.3857 12.0253 29.3857H12.113V29.5173C11.9331 29.5173 11.6098 29.5001 11.361 29.5001C11.084 29.5001 10.7607 29.5173 10.5805 29.5173V29.3857H10.6681C10.9229 29.3857 11.0513 29.3643 11.0513 29.0198V26.6884H10.2942ZM13.0864 29.3857H13.1512C13.3173 29.3857 13.4928 29.3645 13.4928 29.1372V26.8505C13.4928 26.6229 13.3173 26.6012 13.1512 26.6012H13.0864V26.4703C13.3673 26.4703 13.8484 26.4874 14.2353 26.4874C14.6236 26.4874 15.1029 26.4703 15.4165 26.4703C15.4087 26.6577 15.4132 26.9463 15.4266 27.1382L15.2875 27.1732C15.2652 26.8897 15.2101 26.6627 14.7251 26.6627H14.0842V27.806H14.6327C14.9095 27.806 14.9699 27.658 14.9973 27.4218H15.1354C15.1264 27.5924 15.1216 27.7625 15.1216 27.9325C15.1216 28.0988 15.1264 28.2645 15.1354 28.4303L14.9973 28.4562C14.9699 28.1946 14.9559 28.0243 14.637 28.0243H14.0842V29.0412C14.0842 29.325 14.3507 29.325 14.6463 29.325C15.2004 29.325 15.4447 29.2898 15.5834 28.7929L15.7124 28.8229C15.6522 29.0548 15.597 29.2855 15.556 29.5173C15.2601 29.5173 14.7294 29.5001 14.3145 29.5001C13.8986 29.5001 13.3494 29.5173 13.0864 29.5173V29.3857ZM16.3354 26.9327C16.3354 26.6143 16.1508 26.6012 16.0074 26.6012H15.9242V26.4701C16.072 26.4701 16.358 26.4876 16.6398 26.4876C16.9163 26.4876 17.1382 26.4701 17.3827 26.4701C17.9638 26.4701 18.4814 26.6184 18.4814 27.2388C18.4814 27.631 18.2046 27.8712 17.8399 28.0072L18.6289 29.1238C18.7583 29.3084 18.8502 29.3602 19.0767 29.3855V29.5173C18.9242 29.5173 18.7765 29.5001 18.6244 29.5001C18.4814 29.5001 18.3332 29.5173 18.1908 29.5173C17.8354 29.0764 17.53 28.6051 17.2304 28.1024H16.9264V29.0369C16.9264 29.3734 17.0921 29.3855 17.3041 29.3855H17.3874V29.5173C17.1238 29.5173 16.857 29.5001 16.5937 29.5001C16.3718 29.5001 16.1549 29.5173 15.9242 29.5173V29.3855H16.0074C16.1788 29.3855 16.3354 29.3123 16.3354 29.1506V26.9327ZM16.9264 27.9451H17.1518C17.6137 27.9451 17.8624 27.7797 17.8624 27.2643C17.8624 26.8764 17.5996 26.6275 17.1884 26.6275C17.0497 26.6275 16.9906 26.6409 16.9264 26.6448V27.9451ZM22.2103 28.6569L22.2185 28.6483V27.0117C22.2185 26.6536 21.9559 26.6012 21.8176 26.6012H21.7164V26.4703C21.9333 26.4703 22.1449 26.4876 22.3624 26.4876C22.5519 26.4876 22.7402 26.4703 22.9309 26.4703V26.6012H22.8612C22.6675 26.6012 22.4504 26.6363 22.4504 27.1555V29.142C22.4504 29.2946 22.4548 29.4472 22.4776 29.5825H22.3027L19.9258 27.0767V28.8754C19.9258 29.2551 20.004 29.3857 20.3594 29.3857H20.4378V29.5173C20.2396 29.5173 20.041 29.5001 19.8429 29.5001C19.6344 29.5001 19.4223 29.5173 19.2148 29.5173V29.3857H19.2788C19.5978 29.3857 19.6947 29.181 19.6947 28.8322V26.9936C19.6947 26.7496 19.4823 26.6012 19.2749 26.6012H19.2148V26.4703C19.3896 26.4703 19.5704 26.4876 19.7457 26.4876C19.8831 26.4876 20.0174 26.4703 20.1563 26.4703L22.2103 28.6569ZM23.673 28.8931C23.6262 29.0412 23.5706 29.1554 23.5706 29.2333C23.5706 29.3645 23.7646 29.3857 23.9165 29.3857H23.9682V29.5173C23.7832 29.5077 23.5946 29.5003 23.4087 29.5003C23.2428 29.5003 23.0777 29.5077 22.9108 29.5173V29.3857H22.9388C23.1187 29.3857 23.2713 29.2855 23.3395 29.1018L24.0789 27.0991C24.1382 26.9375 24.2221 26.7192 24.2499 26.5571C24.3968 26.5098 24.5818 26.4226 24.6695 26.37C24.6837 26.3654 24.6918 26.3609 24.7063 26.3609C24.7201 26.3609 24.7286 26.3609 24.739 26.3743C24.7528 26.4092 24.7658 26.4485 24.7808 26.4833L25.6299 28.7664C25.6851 28.919 25.74 29.0803 25.7997 29.2119C25.8557 29.3341 25.9526 29.3857 26.1051 29.3857H26.1327V29.5173C25.925 29.5077 25.717 29.5003 25.4959 29.5003C25.27 29.5003 25.0385 29.5077 24.8031 29.5173V29.3857H24.8543C24.9599 29.3857 25.1405 29.3688 25.1405 29.2594C25.1405 29.2029 25.099 29.0852 25.0473 28.9451L24.8679 28.4389H23.8202L23.673 28.8931ZM24.3466 26.9592H24.3371L23.9079 28.1946H24.7704L24.3466 26.9592ZM26.3358 26.6884C25.9894 26.6884 25.9756 26.7671 25.9063 27.0853H25.7676C25.7857 26.9633 25.8092 26.8412 25.8236 26.7143C25.8419 26.5919 25.8505 26.4703 25.8505 26.3438H25.9618C25.9985 26.4749 26.1143 26.4703 26.2384 26.4703H28.6204C28.7445 26.4703 28.8598 26.466 28.8693 26.3348L28.9798 26.3523C28.962 26.4703 28.9435 26.5878 28.9297 26.706C28.9195 26.8239 28.9195 26.9418 28.9195 27.0594L28.7814 27.1078C28.7729 26.9465 28.7497 26.6884 28.4404 26.6884H27.6833V29.0107C27.6833 29.3473 27.8452 29.3857 28.0663 29.3857H28.1541V29.5173C27.9741 29.5173 27.6512 29.5001 27.4018 29.5001C27.1254 29.5001 26.8015 29.5173 26.6216 29.5173V29.3857H26.7093C26.9636 29.3857 27.0927 29.3643 27.0927 29.0198V26.6884H26.3358ZM29.15 29.3857H29.2146C29.3813 29.3857 29.5558 29.3645 29.5558 29.1372V26.8505C29.5558 26.6229 29.3813 26.6012 29.2146 26.6012H29.15V26.4703C29.3304 26.4703 29.6068 26.4874 29.8326 26.4874C30.0641 26.4874 30.3409 26.4703 30.5582 26.4703V26.6012H30.4936C30.3271 26.6012 30.1514 26.6229 30.1514 26.8505V29.1372C30.1514 29.3645 30.3271 29.3857 30.4936 29.3857H30.5582V29.5173C30.3363 29.5173 30.0594 29.5001 29.8289 29.5001C29.6023 29.5001 29.3304 29.5173 29.15 29.5173V29.3857ZM32.3988 26.4051C33.3828 26.4051 34.1669 26.9815 34.1669 27.9112C34.1669 28.9153 33.4053 29.5826 32.4226 29.5826C31.4433 29.5826 30.6961 28.9542 30.6961 28.0157C30.6961 27.108 31.439 26.4051 32.3988 26.4051ZM32.4685 29.3906C33.3641 29.3906 33.52 28.6436 33.52 28.0074C33.52 27.369 33.1565 26.5968 32.3899 26.5968C31.582 26.5968 31.3423 27.2779 31.3423 27.8622C31.3423 28.6436 31.7207 29.3906 32.4685 29.3906ZM37.2771 28.6569L37.2865 28.6483V27.0117C37.2865 26.6536 37.0227 26.6012 36.8842 26.6012H36.7841V26.4703C37.0003 26.4703 37.2128 26.4876 37.4289 26.4876C37.619 26.4876 37.8082 26.4703 37.9977 26.4703V26.6012H37.928C37.7345 26.6012 37.5172 26.6363 37.5172 27.1555V29.142C37.5172 29.2946 37.5215 29.4472 37.545 29.5825H37.3698L34.9924 27.0767V28.8754C34.9924 29.2551 35.071 29.3857 35.426 29.3857H35.5048V29.5173C35.3062 29.5173 35.1082 29.5001 34.9096 29.5001C34.702 29.5001 34.489 29.5173 34.2812 29.5173V29.3857H34.3464C34.6653 29.3857 34.7613 29.181 34.7613 28.8322V26.9936C34.7613 26.7496 34.5501 26.6012 34.3415 26.6012H34.2812V26.4703C34.4569 26.4703 34.637 26.4876 34.8121 26.4876C34.9504 26.4876 35.084 26.4703 35.2229 26.4703L37.2771 28.6569ZM38.7392 28.8931C38.6939 29.0412 38.638 29.1554 38.638 29.2333C38.638 29.3645 38.8324 29.3857 38.9837 29.3857H39.0353V29.5173C38.8505 29.5077 38.661 29.5003 38.4764 29.5003C38.3097 29.5003 38.1443 29.5077 37.9788 29.5173V29.3857H38.005C38.1856 29.3857 38.3385 29.2855 38.4067 29.1018L39.1462 27.0991C39.2059 26.9375 39.2895 26.7192 39.3162 26.5571C39.4642 26.5098 39.6486 26.4226 39.737 26.37C39.7502 26.3654 39.7595 26.3609 39.7735 26.3609C39.7873 26.3609 39.7962 26.3609 39.8054 26.3743C39.8194 26.4092 39.8336 26.4485 39.8476 26.4833L40.6963 28.7664C40.7516 28.919 40.8068 29.0803 40.8675 29.2119C40.9228 29.3341 41.0202 29.3857 41.172 29.3857H41.2002V29.5173C40.9922 29.5077 40.7843 29.5003 40.5625 29.5003C40.3369 29.5003 40.1057 29.5077 39.8702 29.5173V29.3857H39.9213C40.0267 29.3857 40.2079 29.3688 40.2079 29.2594C40.2079 29.2029 40.1659 29.0852 40.1145 28.9451L39.9352 28.4389H38.8874L38.7392 28.8931ZM39.4138 26.9592H39.4045L38.9746 28.1946H39.8385L39.4138 26.9592ZM42.3631 29.0893C42.3631 29.2642 42.4914 29.3162 42.6391 29.3341C42.8285 29.3473 43.0361 29.3473 43.2491 29.3252C43.4425 29.3032 43.6086 29.1987 43.6915 29.0893C43.7652 28.9931 43.8066 28.8711 43.8348 28.775H43.9685C43.9179 29.0237 43.8531 29.2687 43.7973 29.5173C43.3923 29.5173 42.9847 29.5003 42.5796 29.5003C42.1728 29.5003 41.7672 29.5173 41.361 29.5173V29.3857H41.4246C41.5915 29.3857 41.7719 29.3645 41.7719 29.0936V26.8504C41.7719 26.6229 41.5915 26.6012 41.4246 26.6012H41.361V26.4703C41.6051 26.4703 41.8454 26.4876 42.0897 26.4876C42.3259 26.4876 42.5562 26.4703 42.7918 26.4703V26.6012H42.6758C42.5008 26.6012 42.3631 26.6061 42.3631 26.8369V29.0893Z" fill="#1A1918"/>
</g>
</g>
</svg>
