<svg width="68" height="32" viewBox="0 0 68 32" fill="none" xmlns="http://www.w3.org/2000/svg">
<g id="elo-servicos-s-a-seeklogo.com 1">
<g id="Group">
<g id="Group_2">
<g id="Group_3">
<path id="Vector" d="M14.0107 9.80249C14.6651 9.58523 15.3632 9.46937 16.0874 9.46937C19.2578 9.46937 21.9046 11.7114 22.5096 14.6921L27.0034 13.7797C25.9737 8.71622 21.4771 4.90414 16.0874 4.90414C14.8513 4.90414 13.6675 5.10402 12.5564 5.4748L14.0107 9.80249Z" fill="#FFCB05"/>
<path id="Vector_2" d="M8.70834 24.3034L11.7478 20.8824C10.3924 19.6861 9.53729 17.9394 9.53729 15.9928C9.53729 14.0491 10.3924 12.3024 11.7478 11.1089L8.70834 7.685C6.40474 9.71849 4.95044 12.6876 4.95044 15.9928C4.95044 19.3008 6.40474 22.27 8.70834 24.3034Z" fill="#00A4E0"/>
<path id="Vector_3" d="M22.5096 17.3021C21.9017 20.2799 19.2578 22.5191 16.0903 22.5191C15.3632 22.5191 14.6622 22.4032 14.0107 22.1831L12.5564 26.5165C13.6675 26.8844 14.8542 27.0843 16.0903 27.0843C21.4741 27.0843 25.9679 23.278 27.0034 18.2204L22.5096 17.3021Z" fill="#EF4123"/>
</g>
</g>
<path id="Vector_4" d="M30.9329 21.0243C30.7846 20.7868 30.5868 20.4073 30.4646 20.1264C29.752 18.481 29.72 16.7778 30.3192 15.144C30.9794 13.3509 32.2418 11.9808 33.8735 11.2798C35.924 10.4021 38.1898 10.573 40.1561 11.7346C41.4038 12.4472 42.288 13.5479 42.9599 15.1064C43.0443 15.3062 43.1199 15.5177 43.1955 15.7002L30.9329 21.0243ZM35.0282 13.9245C33.571 14.5473 32.8206 15.9087 32.9776 17.5019L39.1439 14.8572C38.0822 13.6174 36.7036 13.2061 35.0282 13.9245ZM39.9117 19.6774C39.9088 19.6774 39.9088 19.6803 39.9088 19.6803L39.7808 19.5934C39.4114 20.1872 38.8385 20.6709 38.1142 20.9838C36.7355 21.5805 35.4587 21.427 34.5396 20.6246L34.4552 20.7521C34.4552 20.7521 34.4552 20.7492 34.4523 20.7492L32.8875 23.081C33.2772 23.3504 33.6932 23.5764 34.1294 23.7588C35.8572 24.4743 37.6256 24.4396 39.3678 23.6864C40.6272 23.1418 41.6162 22.3134 42.291 21.2619L39.9117 19.6774Z" fill="black"/>
<path id="Vector_5" d="M47.4799 7.8501V20.81L49.5043 21.6269L48.3554 24.2976L46.1216 23.3707C45.6213 23.1534 45.2781 22.8232 45.0221 22.4495C44.7749 22.0701 44.5917 21.5458 44.5917 20.8448V7.8501H47.4799Z" fill="black"/>
<g id="Group_4">
<path id="Vector_6" d="M52.7212 17.5107C52.7212 16.407 53.2127 15.4163 53.9864 14.7443L51.9097 12.4385C50.5019 13.6783 49.6148 15.4887 49.6148 17.5049C49.6119 19.5239 50.499 21.3372 51.9039 22.577L53.9777 20.2712C53.2069 19.5963 52.7212 18.6114 52.7212 17.5107Z" fill="black"/>
<path id="Vector_7" d="M56.4093 21.1866C56.0021 21.1866 55.6065 21.117 55.24 20.9954L54.2482 23.9298C54.9259 24.1557 55.6501 24.2803 56.4064 24.2803C59.6931 24.2832 62.4359 21.96 63.0729 18.875L60.0247 18.2551C59.6785 19.9323 58.1923 21.1895 56.4093 21.1866Z" fill="black"/>
<path id="Vector_8" d="M56.418 10.741C55.6647 10.741 54.9404 10.8627 54.2627 11.0857L55.2458 14.023C55.6152 13.9013 56.0079 13.8347 56.4151 13.8347C58.201 13.8376 59.6902 15.1006 60.0276 16.7807L63.0758 16.1666C62.4504 13.0758 59.7076 10.7439 56.418 10.741Z" fill="black"/>
</g>
</g>
</g>
</svg>
