<svg width="76" height="32" viewBox="0 0 76 32" fill="none" xmlns="http://www.w3.org/2000/svg">
<g id="hipercard-seeklogo.com 1" clip-path="url(#clip0_229_65)">
<g id="Group">
<path id="Vector" d="M20.8636 0H12.9868C9.50651 0.15908 6.66161 1.51422 5.84017 4.30872C5.41185 5.76611 5.17613 7.36671 4.8412 8.87747C3.1385 16.5593 1.6287 24.4526 0 31.981H61.3226C66.0634 31.981 69.3184 31.0125 70.1982 27.3752C70.6068 25.6854 70.9983 23.7714 71.3893 21.915C72.9134 14.6766 74.4389 7.43868 76 0H20.8636Z" fill="#B82126"/>
<path id="Vector_2" d="M52.5023 19.1072C51.6518 19.9121 49.2645 20.1407 49.5088 18.2167C49.7116 16.6188 51.5111 16.2793 53.4617 16.5101C53.3167 17.3841 53.1504 18.4939 52.5023 19.1072ZM49.8158 12.8741C49.7345 13.3149 49.6098 13.7138 49.5088 14.1355C50.4826 13.8995 53.515 13.1758 53.8072 14.4323C53.9043 14.8498 53.7369 15.2933 53.6153 15.6196C50.8731 15.3685 48.6381 15.8089 48.0503 17.6973C47.6566 18.9621 48.0944 20.2068 48.9331 20.5543C50.5483 21.2231 52.513 20.4569 53.1931 19.4041C53.1225 19.7686 53.0556 20.1366 53.0779 20.5913H54.498C54.513 19.2766 54.7109 18.2124 54.9201 17.0294C55.0985 16.022 55.4339 15.0247 55.3806 14.1355C55.2587 12.0992 51.7691 12.8195 49.8158 12.8741ZM64.0543 19.7379C62.9433 19.7609 62.3909 19.0962 62.3656 17.9942C62.3213 16.0641 63.1971 13.9197 64.9754 13.7274C65.8033 13.6379 66.4028 13.8241 67.0095 14.0243C66.4526 16.1923 66.6536 19.684 64.0543 19.7379ZM67.7386 9.53494C67.5972 10.7338 67.4081 11.8867 67.1631 12.9853C63.115 11.7467 60.6323 14.6259 60.6769 18.1796C60.6857 18.8669 60.808 19.5484 61.2527 20.0346C62.019 20.8725 64.2131 21.0729 65.3208 20.3687C65.5354 20.2324 65.7544 19.9844 65.8966 19.8122C66.0033 19.6826 66.1729 19.3434 66.2034 19.441C66.1453 19.8177 66.0583 20.1665 66.0501 20.5913H67.5468C67.8352 16.591 68.7272 13.1742 69.389 9.53494H67.7386ZM25.4835 19.1444C24.6006 20.0483 22.43 20.0345 22.2598 18.5135C22.1856 17.8517 22.4407 17.1578 22.5668 16.473C22.6943 15.78 22.7861 15.115 22.9121 14.5065C23.7817 13.4799 26.3373 13.356 26.5966 15.0631C26.8216 16.5452 26.2148 18.3957 25.4835 19.1444ZM26.7885 12.8741C25.3917 12.3669 23.6893 12.9724 22.9514 13.5483C22.9539 13.5737 22.9338 13.5771 22.9121 13.579C22.9247 13.5688 22.9383 13.5586 22.9514 13.5483C22.9512 13.5462 22.9511 13.5443 22.9505 13.542C22.963 13.2942 23.0532 13.1218 23.0657 12.8741H21.6457C21.0539 16.6801 20.3522 20.3795 19.6116 24.0417H21.2618C21.5007 22.6153 21.6585 21.1108 21.9911 19.7751C22.368 21.1799 24.8289 20.9114 25.8673 20.3687C28.01 19.2487 29.6626 13.9178 26.7885 12.8741ZM34.6177 15.5454H30.7415C30.8642 14.684 31.6659 13.737 32.929 13.6904C34.1179 13.6464 34.9691 14.1123 34.6177 15.5454ZM33.0442 12.7257C31.8517 12.8145 30.8438 13.1463 30.1274 13.8758C29.2488 14.7707 28.5372 16.7491 28.7457 18.5507C29.0432 21.121 32.3536 21.0288 35.0016 20.4057C35.0466 19.9547 35.1595 19.569 35.2318 19.1444C34.141 19.5389 32.2471 20.0897 31.1253 19.4041C30.2782 18.8863 30.2733 17.5752 30.5496 16.4359C32.3292 16.3811 34.1788 16.3916 35.961 16.4359C36.0741 15.6283 36.3976 14.7478 36.1144 13.9501C35.741 12.897 34.4044 12.6245 33.0442 12.7257ZM18.537 12.8741C18.4923 12.8803 18.4953 12.9328 18.4985 12.9853C18.1349 15.6143 17.6429 18.1192 17.117 20.5913H18.7672C19.1638 17.9446 19.618 15.3538 20.1872 12.8741H18.537ZM61.5981 12.9111C60.1395 12.2063 58.9253 13.3891 58.4511 14.0983C58.5862 13.7345 58.5939 13.2472 58.7197 12.8741H57.2612C56.8681 15.524 56.3939 18.0956 55.8412 20.5913H57.5299C57.5406 19.5685 57.7484 18.8119 57.9136 17.8086C58.2667 15.6669 58.7846 13.318 61.3679 14.0243C61.4536 13.662 61.4892 13.2511 61.5981 12.9111ZM43.061 18.7733C42.909 18.3934 42.8695 17.766 42.9075 17.2891C42.9929 16.217 43.3969 14.9119 44.0205 14.3211C44.8811 13.5055 46.5801 13.6405 47.9351 14.0983C47.9771 13.6568 48.0689 13.2631 48.1271 12.8371C45.9046 12.4862 43.7955 12.7044 42.6773 13.8387C41.5827 14.9492 40.865 17.5013 41.3723 19.1072C41.9661 20.9863 44.6282 21.0885 46.7839 20.3687C46.8792 19.991 46.9297 19.5699 47.0142 19.1814C45.8363 19.773 43.5845 20.0805 43.061 18.7733ZM42.1401 12.8741C40.6767 12.3028 39.5264 13.2683 38.9931 14.1727C39.1139 13.7703 39.1638 13.2991 39.2616 12.8741H37.8031C37.4467 15.5472 36.9211 18.0567 36.4216 20.5913H38.072C38.3032 19.0867 38.4031 17.0588 38.9162 15.6196C39.3263 14.4696 40.3995 13.4898 41.9481 14.0243C41.9699 13.6 42.0955 13.2762 42.1401 12.8741ZM15.5435 9.75752C15.3077 11.2363 15.0422 12.6863 14.7759 14.1355C13.0662 14.1529 11.3206 14.2172 9.67151 14.0983C9.98296 12.6806 10.2063 11.1775 10.5157 9.75752H8.67368C8.01412 13.3744 7.41431 17.0489 6.67801 20.5913H8.55849C8.85355 18.774 9.12938 16.9382 9.51787 15.2115C11.1213 15.1733 13.0431 15.1068 14.5839 15.2487C14.2662 17.044 13.8824 18.7751 13.5861 20.5913H15.4667C16.0709 16.9211 16.7076 13.2822 17.4624 9.75752H15.5435ZM20.2257 11.39C20.5547 11.171 20.9784 10.173 20.4944 9.75752C20.341 9.62599 20.0844 9.58781 19.7268 9.6463C19.3949 9.70047 19.204 9.80938 19.0744 9.98009C18.8657 10.2547 18.6747 11.0824 18.9975 11.39C19.3119 11.6895 20.0163 11.5293 20.2257 11.39Z" fill="white"/>
</g>
</g>
<defs>
<clipPath id="clip0_229_65">
<rect width="76" height="32" fill="white"/>
</clipPath>
</defs>
</svg>
