<svg width="48" height="32" viewBox="0 0 48 32" fill="none" xmlns="http://www.w3.org/2000/svg">
<g clip-path="url(#clip0_229_115)">
<path d="M30.3329 5.57513H17.6708V26.4212H30.3329V5.57513Z" fill="#FF5F00"/>
<path d="M18.975 16C18.9734 13.9927 19.4248 12.0114 20.2951 10.2059C21.1654 8.40043 22.4317 6.81815 23.9982 5.57882C22.058 4.04187 19.728 3.08613 17.2744 2.82083C14.8208 2.55554 12.3427 2.99139 10.1232 4.07858C7.90376 5.16577 6.03252 6.86043 4.72337 8.96887C3.41422 11.0773 2.71997 13.5145 2.71997 16.0018C2.71997 18.4892 3.41422 20.9263 4.72337 23.0348C6.03252 25.1432 7.90376 26.8379 10.1232 27.9251C12.3427 29.0123 14.8208 29.4481 17.2744 29.1828C19.728 28.9175 22.058 27.9618 23.9982 26.4248C22.4312 25.1851 21.1646 23.6023 20.2943 21.7961C19.424 19.99 18.9729 18.0079 18.975 16Z" fill="#EB001B"/>
<path d="M44.0216 24.2154V23.7883H44.2043V23.6999H43.7695V23.7883H43.9412V24.2154H44.0216ZM44.8655 24.2154V23.6999H44.734L44.5806 24.0681L44.4271 23.6999H44.2956V24.2154H44.3906V23.8251L44.5331 24.1602H44.6317L44.7742 23.8251V24.2154H44.8655Z" fill="#F79E1B"/>
<path d="M45.2783 16C45.2783 18.4875 44.5839 20.9248 43.2745 23.0334C41.9651 25.1419 40.0936 26.8365 37.8738 27.9235C35.6541 29.0106 33.1757 29.4461 30.722 29.1805C28.2683 28.9148 25.9382 27.9586 23.9982 26.4212C25.5641 25.1807 26.83 23.598 27.7005 21.7925C28.571 19.9869 29.0233 18.0056 29.0233 15.9981C29.0233 13.9907 28.571 12.0094 27.7005 10.2038C26.83 8.39828 25.5641 6.81557 23.9982 5.57513C25.9382 4.0377 28.2683 3.0815 30.722 2.81582C33.1757 2.55015 35.6541 2.98572 37.8738 4.07275C40.0936 5.15979 41.9651 6.85442 43.2745 8.96293C44.5839 11.0715 45.2783 13.5088 45.2783 15.9963V16Z" fill="#F79E1B"/>
</g>
<defs>
<clipPath id="clip0_229_115">
<rect width="48" height="32" fill="white"/>
</clipPath>
</defs>
</svg>
