<svg width="68" height="24" viewBox="0 0 68 24" fill="none" xmlns="http://www.w3.org/2000/svg">
<g id="pix-banco-central 1" clip-path="url(#clip0_229_69)">
<g id="layer1">
<path id="path2356" d="M28.0712 22.406V8.63771C28.0712 6.10002 30.1384 4.04828 32.6952 4.04828H36.7888C39.332 4.04828 41.3856 6.10002 41.3856 8.62421V11.5533C41.3856 14.091 39.3184 16.1428 36.7616 16.1428H30.9816" stroke="#939598" stroke-width="2.9764" stroke-miterlimit="10" stroke-linecap="round" stroke-linejoin="round"/>
<path id="path2360" d="M42.528 4.06177H44.3096C45.3568 4.06177 46.2 4.89866 46.2 5.93803V16.2237" stroke="#939598" stroke-width="2.9764" stroke-miterlimit="10" stroke-linecap="round" stroke-linejoin="round"/>
<path id="path2364" d="M45.8192 2.46898L45.0168 1.67258C44.8128 1.4701 44.8128 1.14614 45.0168 0.957168L45.8192 0.160767C46.0232 -0.0417075 46.3496 -0.0417075 46.54 0.160767L47.3424 0.957168C47.5464 1.15964 47.5464 1.4836 47.3424 1.67258L46.54 2.46898C46.336 2.65795 46.0096 2.65795 45.8192 2.46898Z" fill="#32BCAD"/>
<path id="path2368" d="M49.6 4.04828H51.3544C52.2656 4.04828 53.1224 4.39924 53.7752 5.04715L57.896 9.13714C58.4264 9.66358 59.2968 9.66358 59.8272 9.13714L63.9344 5.06065C64.5736 4.42623 65.444 4.06178 66.3552 4.06178H67.7832" stroke="#939598" stroke-width="2.9764" stroke-miterlimit="10" stroke-linecap="round" stroke-linejoin="round"/>
<path id="path2372" d="M49.6 16.1293H51.3544C52.2656 16.1293 53.1224 15.7783 53.7752 15.1304L57.896 11.0404C58.4264 10.514 59.2968 10.514 59.8272 11.0404L63.9344 15.1169C64.5736 15.7513 65.444 16.1158 66.3552 16.1158H67.7832" stroke="#939598" stroke-width="2.9764" stroke-miterlimit="10" stroke-linecap="round" stroke-linejoin="round"/>
<path id="path2376" d="M17.572 18.7344C16.688 18.7344 15.8584 18.397 15.2328 17.7761L11.86 14.4285C11.6288 14.199 11.2072 14.199 10.976 14.4285L7.58962 17.7896C6.96402 18.4105 6.13442 18.7479 5.25042 18.7479H4.58401L8.86802 22.9999C10.2008 24.3227 12.3768 24.3227 13.7096 22.9999L18.0072 18.7344H17.572Z" fill="#32BCAD"/>
<path id="path2380" d="M5.23681 6.88292C6.12081 6.88292 6.95041 7.22038 7.57601 7.8413L10.9624 11.2024C11.2072 11.4454 11.6016 11.4454 11.8464 11.2024L15.2328 7.8548C15.8584 7.23388 16.688 6.89642 17.572 6.89642H17.98L13.6824 2.63095C12.3496 1.30812 10.1736 1.30812 8.84081 2.63095L4.55681 6.88292H5.23681Z" fill="#32BCAD"/>
<path id="path2384" d="M21.5296 10.4195L18.932 7.84132C18.8776 7.86831 18.8096 7.88181 18.7416 7.88181H17.5584C16.9464 7.88181 16.348 8.12478 15.9264 8.55673L12.5536 11.9043C12.2408 12.2148 11.8192 12.3768 11.4112 12.3768C10.9896 12.3768 10.5816 12.2148 10.2688 11.9043L6.88242 8.54323C6.44722 8.11128 5.84882 7.86831 5.25042 7.86831H3.79521C3.72721 7.86831 3.67282 7.85482 3.61842 7.82782L1.00721 10.4195C-0.325586 11.7423 -0.325586 13.9021 1.00721 15.2249L3.60481 17.8031C3.65921 17.7761 3.71362 17.7626 3.78162 17.7626H5.23681C5.84881 17.7626 6.44721 17.5196 6.86881 17.0877L10.2552 13.7266C10.8672 13.1192 11.9416 13.1192 12.5536 13.7266L15.9264 17.0742C16.3616 17.5061 16.96 17.7491 17.5584 17.7491H18.7416C18.8096 17.7491 18.864 17.7626 18.932 17.7896L21.5296 15.2114C22.8624 13.8886 22.8624 11.7423 21.5296 10.4195Z" fill="#32BCAD"/>
<path id="path2388" d="M31.58 21.2316C31.3896 21.2316 31.172 21.2721 30.9408 21.3261V22.163C31.0904 22.217 31.2672 22.244 31.4304 22.244C31.852 22.244 32.056 22.0955 32.056 21.7311C32.0696 21.3936 31.9064 21.2316 31.58 21.2316ZM30.8048 22.7974V21.1371H30.9272L30.9408 21.2046C31.1312 21.1641 31.4032 21.0966 31.6072 21.0966C31.7704 21.0966 31.92 21.1236 32.0424 21.2181C32.192 21.3396 32.2328 21.5286 32.2328 21.7311C32.2328 21.947 32.1648 22.1495 31.9608 22.271C31.8248 22.352 31.6344 22.379 31.4712 22.379C31.2944 22.379 31.1312 22.352 30.968 22.298V22.7839H30.8048V22.7974Z" fill="#939598"/>
<path id="path2392" d="M33.2936 21.2316C32.872 21.2316 32.6816 21.3666 32.6816 21.7311C32.6816 22.0955 32.872 22.244 33.2936 22.244C33.7152 22.244 33.9056 22.109 33.9056 21.7446C33.892 21.3936 33.7152 21.2316 33.2936 21.2316ZM33.8376 22.2575C33.7016 22.352 33.5112 22.3925 33.2936 22.3925C33.076 22.3925 32.8856 22.3655 32.7496 22.2575C32.6 22.1495 32.532 21.974 32.532 21.7446C32.532 21.5286 32.6 21.3396 32.7496 21.2316C32.8856 21.1371 33.076 21.0966 33.2936 21.0966C33.5112 21.0966 33.7016 21.1236 33.8376 21.2316C34.0008 21.3396 34.0552 21.5286 34.0552 21.7446C34.0552 21.9605 33.9872 22.1495 33.8376 22.2575Z" fill="#939598"/>
<path id="path2396" d="M35.8368 22.352L35.3608 21.3396H35.3472L34.8848 22.352H34.7624L34.2592 21.1371H34.4224L34.844 22.1495H34.8576L35.3064 21.1371H35.4424L35.9048 22.1495H35.9184L36.3264 21.1371H36.476L35.9728 22.352H35.8368Z" fill="#939598"/>
<path id="path2400" d="M37.3872 21.2316C36.9928 21.2316 36.8568 21.4071 36.8432 21.6501H37.9448C37.9176 21.3801 37.7816 21.2316 37.3872 21.2316ZM37.3736 22.379C37.1424 22.379 36.9928 22.352 36.8704 22.244C36.7208 22.1225 36.68 21.947 36.68 21.7446C36.68 21.5556 36.748 21.3396 36.9112 21.2316C37.0472 21.1371 37.2104 21.1101 37.3872 21.1101C37.5504 21.1101 37.7272 21.1236 37.8768 21.2316C38.0536 21.3531 38.0944 21.5556 38.0944 21.7851H36.8432C36.8432 22.0415 36.9248 22.2575 37.4008 22.2575C37.632 22.2575 37.836 22.217 38.0264 22.19V22.3115C37.8224 22.3385 37.5912 22.379 37.3736 22.379Z" fill="#939598"/>
<path id="path2404" d="M38.4888 22.352V21.1371H38.6112L38.6248 21.2046C38.8832 21.1371 39.0056 21.0966 39.2368 21.0966H39.2504V21.2316H39.2096C39.0192 21.2316 38.8968 21.2586 38.6384 21.3261V22.3385L38.4888 22.352Z" fill="#939598"/>
<path id="path2408" d="M40.08 21.2316C39.6856 21.2316 39.5496 21.4071 39.536 21.6501H40.6376C40.6104 21.3801 40.4744 21.2316 40.08 21.2316ZM40.0664 22.379C39.8352 22.379 39.6856 22.352 39.5632 22.244C39.4136 22.1225 39.3728 21.947 39.3728 21.7446C39.3728 21.5556 39.4408 21.3396 39.604 21.2316C39.74 21.1371 39.9032 21.1101 40.08 21.1101C40.2432 21.1101 40.42 21.1236 40.5696 21.2316C40.7464 21.3531 40.7872 21.5556 40.7872 21.7851H39.536C39.536 22.0415 39.6176 22.2575 40.0936 22.2575C40.3248 22.2575 40.5288 22.217 40.7192 22.19V22.3115C40.5152 22.3385 40.284 22.379 40.0664 22.379Z" fill="#939598"/>
<path id="path2412" d="M42.3376 21.3126C42.188 21.2586 42.0112 21.2316 41.848 21.2316C41.4264 21.2316 41.2224 21.3801 41.2224 21.7446C41.2224 22.0955 41.3856 22.244 41.712 22.244C41.9024 22.244 42.12 22.2035 42.3512 22.1495V21.3126H42.3376ZM42.3648 22.352L42.3512 22.2845C42.1608 22.325 41.8888 22.3925 41.6848 22.3925C41.5216 22.3925 41.372 22.3655 41.2496 22.271C41.1 22.1495 41.0592 21.9606 41.0592 21.7581C41.0592 21.5421 41.1272 21.3396 41.3312 21.2316C41.4672 21.1507 41.6576 21.1237 41.8208 21.1237C41.984 21.1237 42.1608 21.1507 42.324 21.2046V20.6512H42.4736V22.379L42.3648 22.352Z" fill="#939598"/>
<path id="path2416" d="M44.5816 21.2316C44.3912 21.2316 44.1736 21.2721 43.9424 21.3261V22.163C44.092 22.217 44.2688 22.244 44.432 22.244C44.8536 22.244 45.0576 22.0955 45.0576 21.7311C45.0576 21.3936 44.8944 21.2316 44.5816 21.2316ZM44.9488 22.271C44.8128 22.352 44.6224 22.379 44.4592 22.379C44.2824 22.379 44.092 22.352 43.9152 22.2845L43.9016 22.3385H43.8064V20.6107H43.956V21.1911C44.1464 21.1507 44.4184 21.0967 44.6088 21.0967C44.772 21.0967 44.9216 21.1237 45.044 21.2181C45.1936 21.3396 45.2344 21.5286 45.2344 21.7311C45.2208 21.9605 45.1392 22.163 44.9488 22.271Z" fill="#939598"/>
<path id="path2420" d="M45.3976 22.8109V22.676C45.4656 22.6895 45.5336 22.6895 45.5744 22.6895C45.7512 22.6895 45.86 22.6355 45.9552 22.433L45.996 22.3385L45.3568 21.1237H45.52L46.064 22.1765H46.0776L46.5944 21.1237H46.7576L46.064 22.487C45.9416 22.73 45.8056 22.8109 45.5472 22.8109C45.52 22.8244 45.4656 22.8244 45.3976 22.8109Z" fill="#939598"/>
<path id="path2424" d="M48.7432 21.6501H48.2672V22.082H48.7432C49.0696 22.082 49.192 22.0415 49.192 21.8661C49.2056 21.6771 49.0288 21.6501 48.7432 21.6501ZM48.6616 20.9617H48.2808V21.3936H48.6752C49.0016 21.3936 49.124 21.3531 49.124 21.1776C49.1104 20.9887 48.9472 20.9617 48.6616 20.9617ZM49.396 22.2305C49.2192 22.3385 49.0152 22.352 48.6208 22.352H47.9V20.7052H48.6072C48.9336 20.7052 49.1376 20.7052 49.3144 20.8132C49.4368 20.8807 49.4776 21.0022 49.4776 21.1371C49.4776 21.3126 49.4096 21.4206 49.2192 21.5016V21.5151C49.4368 21.5691 49.5728 21.6771 49.5728 21.9066C49.5728 22.055 49.5184 22.163 49.396 22.2305Z" fill="#939598"/>
<path id="path2428" d="M51.028 21.8391C50.8784 21.8256 50.7424 21.8256 50.5928 21.8256C50.348 21.8256 50.2528 21.8796 50.2528 21.9875C50.2528 22.0955 50.3208 22.1495 50.5112 22.1495C50.6744 22.1495 50.8648 22.109 51.028 22.082V21.8391ZM51.096 22.352L51.0824 22.2845C50.8784 22.3385 50.6336 22.3925 50.416 22.3925C50.28 22.3925 50.144 22.379 50.0488 22.298C49.9536 22.2305 49.9128 22.1225 49.9128 22.001C49.9128 21.8661 49.9672 21.7311 50.1168 21.6771C50.2392 21.6231 50.416 21.6096 50.5792 21.6096C50.7016 21.6096 50.8784 21.6231 51.028 21.6231V21.5961C51.028 21.4071 50.9056 21.3396 50.552 21.3396C50.416 21.3396 50.2528 21.3531 50.1032 21.3666V21.1236C50.28 21.1101 50.4704 21.0966 50.6336 21.0966C50.8512 21.0966 51.0688 21.1101 51.2048 21.2046C51.3408 21.2991 51.368 21.4341 51.368 21.6231V22.3385L51.096 22.352Z" fill="#939598"/>
<path id="path2432" d="M52.9592 22.352V21.6771C52.9592 21.4611 52.8504 21.3801 52.6464 21.3801C52.4968 21.3801 52.3064 21.4206 52.1432 21.4611V22.352H51.8032V21.1371H52.0752L52.0888 21.2181C52.3064 21.1641 52.5376 21.1101 52.7416 21.1101C52.8912 21.1101 53.0408 21.1371 53.1632 21.2316C53.2584 21.3126 53.2992 21.4341 53.2992 21.6096V22.352H52.9592Z" fill="#939598"/>
<path id="path2436" d="M54.2648 22.379C54.1016 22.379 53.9384 22.352 53.816 22.2575C53.6664 22.136 53.6256 21.947 53.6256 21.7446C53.6256 21.5556 53.6936 21.3396 53.8704 21.2316C54.02 21.1371 54.2104 21.1101 54.4144 21.1101C54.5504 21.1101 54.6864 21.1236 54.8496 21.1371V21.3936C54.7272 21.3801 54.5776 21.3666 54.4552 21.3666C54.1288 21.3666 53.9792 21.4611 53.9792 21.7446C53.9792 22.001 54.088 22.1225 54.36 22.1225C54.5096 22.1225 54.7 22.0955 54.8768 22.055V22.3115C54.6728 22.3385 54.4552 22.379 54.2648 22.379Z" fill="#939598"/>
<path id="path2440" d="M55.8696 21.3531C55.5432 21.3531 55.4072 21.4476 55.4072 21.7311C55.4072 22.001 55.5432 22.1225 55.8696 22.1225C56.196 22.1225 56.332 22.028 56.332 21.7446C56.332 21.4746 56.196 21.3531 55.8696 21.3531ZM56.4544 22.2575C56.3048 22.352 56.1144 22.379 55.8696 22.379C55.6248 22.379 55.4344 22.352 55.2848 22.2575C55.1216 22.1495 55.0536 21.9605 55.0536 21.7446C55.0536 21.5286 55.108 21.3396 55.2848 21.2316C55.4344 21.1371 55.6248 21.1101 55.8696 21.1101C56.1144 21.1101 56.3048 21.1371 56.4544 21.2316C56.6176 21.3396 56.6856 21.5286 56.6856 21.7446C56.6856 21.9605 56.6176 22.1495 56.4544 22.2575Z" fill="#939598"/>
<path id="path2444" d="M58.6576 22.379C58.4536 22.379 58.2224 22.352 58.0592 22.2035C57.8552 22.0415 57.8008 21.7851 57.8008 21.5151C57.8008 21.2721 57.8824 20.9887 58.1408 20.8132C58.3448 20.6782 58.5896 20.6512 58.848 20.6512C59.0384 20.6512 59.2152 20.6647 59.4328 20.6782V20.9752C59.256 20.9617 59.0384 20.9482 58.8752 20.9482C58.3992 20.9482 58.2088 21.1237 58.2088 21.5016C58.2088 21.8931 58.3992 22.0685 58.7392 22.0685C58.9704 22.0685 59.2152 22.028 59.4736 21.974V22.271C59.2016 22.325 58.9296 22.379 58.6576 22.379Z" fill="#939598"/>
<path id="path2448" d="M60.4528 21.3126C60.1672 21.3126 60.0584 21.4071 60.0448 21.5961H60.8744C60.8608 21.4071 60.7384 21.3126 60.4528 21.3126ZM60.3984 22.379C60.1944 22.379 60.0176 22.352 59.8816 22.244C59.732 22.1225 59.6912 21.947 59.6912 21.7311C59.6912 21.5421 59.7456 21.3396 59.9224 21.2181C60.072 21.1101 60.2624 21.0966 60.4528 21.0966C60.6296 21.0966 60.8336 21.1101 60.9832 21.2181C61.1736 21.3531 61.2008 21.5691 61.2008 21.8121H60.0448C60.0584 22.001 60.1536 22.1225 60.4936 22.1225C60.7112 22.1225 60.9424 22.0955 61.1464 22.055V22.298C60.9016 22.3385 60.6432 22.379 60.3984 22.379Z" fill="#939598"/>
<path id="path2452" d="M62.724 22.352V21.6771C62.724 21.4611 62.6152 21.3801 62.4112 21.3801C62.2616 21.3801 62.0712 21.4206 61.908 21.4611V22.352H61.568V21.1371H61.84L61.8536 21.2181C62.0712 21.1641 62.3024 21.1101 62.5064 21.1101C62.656 21.1101 62.8056 21.1371 62.928 21.2316C63.0232 21.3126 63.064 21.4341 63.064 21.6096V22.352H62.724Z" fill="#939598"/>
<path id="path2456" d="M64.0296 22.379C63.8664 22.379 63.7168 22.3385 63.6352 22.2035C63.5808 22.1225 63.54 22.001 63.54 21.8391V21.3801H63.2952V21.1236H63.54L63.5808 20.7592H63.88V21.1236H64.356V21.3801H63.88V21.7716C63.88 21.866 63.8936 21.947 63.9072 22.001C63.948 22.082 64.0296 22.109 64.1248 22.109C64.2064 22.109 64.3016 22.0955 64.3696 22.082V22.325C64.2744 22.3655 64.1384 22.379 64.0296 22.379Z" fill="#939598"/>
<path id="path2460" d="M64.696 22.352V21.1371H64.968L64.9816 21.2181C65.2128 21.1506 65.376 21.1101 65.5936 21.1101H65.6344V21.3936H65.512C65.3488 21.3936 65.2128 21.4071 65.036 21.4611V22.352H64.696Z" fill="#939598"/>
<path id="path2464" d="M66.872 21.8391C66.7224 21.8256 66.5864 21.8256 66.4368 21.8256C66.192 21.8256 66.0968 21.8796 66.0968 21.9875C66.0968 22.0955 66.1648 22.1495 66.3552 22.1495C66.5184 22.1495 66.7088 22.109 66.872 22.082V21.8391ZM66.9536 22.352L66.94 22.2845C66.736 22.3385 66.4912 22.3925 66.2736 22.3925C66.1376 22.3925 66.0016 22.379 65.9064 22.298C65.8112 22.2305 65.7704 22.1225 65.7704 22.001C65.7704 21.8661 65.8248 21.7311 65.9744 21.6771C66.0968 21.6231 66.2736 21.6096 66.4368 21.6096C66.5592 21.6096 66.736 21.6231 66.8856 21.6231V21.5961C66.8856 21.4071 66.7632 21.3396 66.4096 21.3396C66.2736 21.3396 66.1104 21.3531 65.9608 21.3666V21.1236C66.1376 21.1101 66.328 21.0966 66.4912 21.0966C66.7088 21.0966 66.9264 21.1101 67.0624 21.2046C67.1984 21.2991 67.2256 21.4341 67.2256 21.6231V22.3385L66.9536 22.352Z" fill="#939598"/>
<path id="path2466" d="M67.6608 20.6242H68.0008V22.352H67.6608V20.6242Z" fill="#939598"/>
</g>
</g>
<defs>
<clipPath id="clip0_229_69">
<rect width="68" height="24" fill="white"/>
</clipPath>
</defs>
</svg>
