<svg width="48" height="32" viewBox="0 0 48 32" fill="none" xmlns="http://www.w3.org/2000/svg">
<g clip-path="url(#clip0_229_122)">
<path d="M21.0902 22.5987H17.5193L19.7511 9.41046H23.3224L21.0902 22.5987ZM14.5152 9.41046L11.1108 18.4815L10.708 16.5281L10.7083 16.5288L9.50677 10.5979C9.50677 10.5979 9.36148 9.41046 7.81284 9.41046H2.18475L2.11871 9.63377C2.11871 9.63377 3.83979 9.97808 5.85402 11.1412L8.95644 22.5991H12.6771L18.3584 9.41046H14.5152ZM42.6024 22.5987H45.8813L43.0225 9.41011H40.152C38.8264 9.41011 38.5035 10.3929 38.5035 10.3929L33.1778 22.5987H36.9002L37.6446 20.6398H42.1842L42.6024 22.5987ZM38.673 17.9336L40.5493 12.9982L41.6048 17.9336H38.673ZM33.457 12.5819L33.9666 9.74983C33.9666 9.74983 32.3941 9.1748 30.7548 9.1748C28.9827 9.1748 24.7745 9.91952 24.7745 13.5408C24.7745 16.9479 29.7136 16.9903 29.7136 18.7799C29.7136 20.5696 25.2834 20.2489 23.8213 19.1203L23.2904 22.0816C23.2904 22.0816 24.885 22.8263 27.3211 22.8263C29.758 22.8263 33.4342 21.6131 33.4342 18.3111C33.4342 14.8821 28.4508 14.5628 28.4508 13.0719C28.4511 11.5808 31.9289 11.7723 33.457 12.5819Z" fill="#2566AF"/>
<path d="M10.7083 16.5285L9.50677 10.5976C9.50677 10.5976 9.36148 9.41016 7.81284 9.41016H2.18475L2.11871 9.63346C2.11871 9.63346 4.82379 10.1725 7.41843 12.1922C9.89934 14.1226 10.7083 16.5285 10.7083 16.5285Z" fill="#E6A540"/>
</g>
<defs>
<clipPath id="clip0_229_122">
<rect width="48" height="32" fill="white"/>
</clipPath>
</defs>
</svg>
